<svg xmlns="http://www.w3.org/2000/svg" width="210mm" height="297mm" viewBox="0 0 744.094 1052.362"><ellipse cx="367.857" cy="495.934" rx="160.954" ry="162.382" style="fill:#000;fill-rule:evenodd;stroke:#000;stroke-width:9.56927681;stroke-linecap:butt;stroke-linejoin:miter;stroke-miterlimit:4;stroke-dasharray:none;stroke-opacity:1;fill-opacity:1"/><ellipse cx="295" cy="428.791" rx="61.111" ry="59.683" style="fill:#fff;fill-rule:evenodd;stroke:#000;stroke-width:9.94517899;stroke-linecap:butt;stroke-linejoin:miter;stroke-miterlimit:4;stroke-dasharray:none;stroke-opacity:1;fill-opacity:1"/><ellipse cx="443.571" cy="430.219" rx="61.111" ry="59.683" style="fill:#fff;fill-rule:evenodd;stroke:#000;stroke-width:9.94517899;stroke-linecap:butt;stroke-linejoin:miter;stroke-miterlimit:4;stroke-dasharray:none;stroke-opacity:1;fill-opacity:1"/><ellipse cx="367.857" cy="597.362" rx="61.111" ry="59.683" style="fill:#fff;fill-rule:evenodd;stroke:#000;stroke-width:9.94517899;stroke-linecap:butt;stroke-linejoin:miter;stroke-miterlimit:4;stroke-dasharray:none;stroke-opacity:1;fill-opacity:1"/><ellipse cx="265.166" cy="548.791" rx="44.073" ry="43.907" style="fill:#fff;fill-rule:evenodd;stroke:#000;stroke-width:9.87373066;stroke-linecap:butt;stroke-linejoin:miter;stroke-miterlimit:4;stroke-dasharray:none;stroke-opacity:1;fill-opacity:1"/><circle cx="470.143" cy="548.219" r="45.2" style="fill:#fff;fill-opacity:1;fill-rule:evenodd;stroke:#000;stroke-width:10.14530182;stroke-linecap:butt;stroke-linejoin:miter;stroke-miterlimit:4;stroke-dasharray:none;stroke-opacity:1"/><ellipse cx="295.47" cy="427.825" rx="17.293" ry="16.875" style="fill:#000;fill-rule:evenodd;stroke:#000;stroke-width:1;stroke-linecap:butt;stroke-linejoin:miter;stroke-miterlimit:4;stroke-dasharray:none;stroke-opacity:1;fill-opacity:1"/><ellipse cx="442.953" cy="428.33" rx="17.293" ry="16.875" style="fill:#000;fill-rule:evenodd;stroke:#000;stroke-width:1;stroke-linecap:butt;stroke-linejoin:miter;stroke-miterlimit:4;stroke-dasharray:none;stroke-opacity:1;fill-opacity:1"/><ellipse cx="368.201" cy="596.015" rx="17.293" ry="16.875" style="fill:#000;fill-rule:evenodd;stroke:#000;stroke-width:1;stroke-linecap:butt;stroke-linejoin:miter;stroke-miterlimit:4;stroke-dasharray:none;stroke-opacity:1;fill-opacity:1"/><ellipse cx="265.418" cy="550.316" rx="10.354" ry="10.607" style="fill:#000;fill-rule:evenodd;stroke:#000;stroke-width:1px;stroke-linecap:butt;stroke-linejoin:miter;stroke-opacity:1;fill-opacity:1"/><ellipse cx="470.499" cy="548.316" rx="10.354" ry="10.607" style="fill:#000;fill-opacity:1;fill-rule:evenodd;stroke:#000;stroke-width:1px;stroke-linecap:butt;stroke-linejoin:miter;stroke-opacity:1"/><path d="M314.157 710.426s-8.297-2.732-12.374-4.294c-39.464-15.116-77.73-39.074-103.288-72.478-30.356-39.674-52.53-90.984-51.013-140.916 1.688-55.55 26.774-113.834 66.165-153.038 39.83-39.642 98.867-66.733 155.059-66.165 58.17.587 118.773 29.794 159.099 71.72 37.016 38.486 58.803 95.11 60.104 148.493 1.195 49.024-18.58 100.033-48.488 138.896-27.026 35.118-69.145 60.366-110.106 74.499-2.543.877-7.576 2.777-7.576 2.777l-.505 22.224c-.163 7.157-6.988 15.918-14.143 16.162-39.794 1.36-40.271.575-74.75 1.01-7.634.097-17.492-10.55-17.678-18.182z" style="fill:none;fill-rule:evenodd;stroke:#000;stroke-width:10;stroke-linecap:butt;stroke-linejoin:miter;stroke-miterlimit:4;stroke-dasharray:none;stroke-opacity:1;fill-opacity:1"/><path d="m315.714 217.362 100-.714" style="fill:none;fill-rule:evenodd;stroke:#000;stroke-width:10;stroke-linecap:butt;stroke-linejoin:miter;stroke-opacity:1;stroke-miterlimit:4;stroke-dasharray:none;fill-opacity:1"/><path d="M315.714 260.934 315 201.648s-6.462.074-9.286 1.428c-3.494 1.677-7.454 4.146-8.571 7.858-6.437 21.38-13.572 57.857-13.572 57.857m132.236-7.143.714-59.286s6.462.074 9.286 1.429c3.495 1.676 7.454 4.146 8.571 7.857 6.437 21.38 13.572 57.857 13.572 57.857" style="fill:#000;fill-rule:evenodd;stroke:#000;stroke-width:10;stroke-linecap:butt;stroke-linejoin:miter;stroke-miterlimit:4;stroke-dasharray:none;stroke-opacity:1;fill-opacity:1"/><path d="M303.194 719.339s-14.026-5.388-18.092-7.538c-39.57-20.922-71.23-37.8-94.708-69.022-31.536-41.935-55.359-95.52-53.76-147.943 1.778-58.32 28.215-119.51 69.728-160.669 41.975-41.618 104.19-70.06 163.409-69.464 61.302.617 125.169 31.28 167.667 75.297 39.01 40.405 61.97 99.853 63.34 155.897 1.26 51.469-17.224 103.563-51.098 145.822-25.393 31.68-57.717 50.244-98.863 71.142-2.527 1.284-17.076 5.947-17.076 5.947l-.532 23.332c-.172 7.514 2.737 23.783-4.802 24.04-41.938 1.426-67.695.602-104.031 1.06-8.045.101-19.338 1.041-19.64-6.968z" style="fill:none;fill-opacity:1;fill-rule:evenodd;stroke:#000;stroke-width:35;stroke-linecap:butt;stroke-linejoin:miter;stroke-miterlimit:4;stroke-dasharray:none;stroke-opacity:1"/></svg>