<svg xmlns="http://www.w3.org/2000/svg" width="210mm" height="297mm" viewBox="0 0 744.094 1052.362"><path d="M184.858 610.926c5.342-9.412 20.614 5.502 32.325 3.03 11.71-2.472 21.396-12.731 34.345-19.193 36.307-19.01 81.46-28.176 119.198-28.284 50.786 1.914 74.271 7.417 116.168 29.294 11.09 5.785 22.315 18.456 31.314 20.203 9 1.748 30.546-16.674 37.376-6.06 8.54 13.272-26.264 39.395-26.264 39.395l-52.528 30.305-67.68 19.193-79.802 1.01-58.59-15.152-55.558-32.325s-38.749-26.54-30.304-41.416z" style="fill:#000;fill-opacity:1;fill-rule:evenodd;stroke:#000;stroke-width:1px;stroke-linecap:butt;stroke-linejoin:miter;stroke-opacity:1"/><ellipse cx="230.35" cy="418.672" rx="83.018" ry="86.048" style="fill:none;fill-rule:evenodd;stroke:#000;stroke-width:30;stroke-linecap:butt;stroke-linejoin:miter;stroke-miterlimit:4;stroke-dasharray:none;stroke-opacity:1"/><ellipse cx="499.051" cy="418.672" rx="83.018" ry="86.048" style="fill:none;fill-rule:evenodd;stroke:#000;stroke-width:30;stroke-linecap:butt;stroke-linejoin:miter;stroke-miterlimit:4;stroke-dasharray:none;stroke-opacity:1"/><path d="M279.307 316.91s-33.086 4.356-48.992 9.153c-20.646 6.225-42.55 11.997-59.559 25.253-11.003 8.576-18.999 20.906-25.253 33.376-5.967 11.895-8.554 25.286-11.112 38.345-2.474 12.626-3.897 25.52-4.04 38.386-.136 12.163 1.222 24.334 3.01 36.365 1.873 12.607 4.337 25.187 8.06 37.376 4.238 13.874 9.892 27.326 16.163 40.406 6.518 13.596 13.505 27.095 22.223 39.396 8.278 11.68 17.649 22.743 28.305 32.305 12.235 10.978 25.911 20.511 40.386 28.304 13.708 7.381 28.393 13.16 43.436 17.173 15.782 4.21 32.192 5.964 48.487 7.071 18.31 1.244 36.786 1.25 55.054-.505 17.552-1.687 35.174-4.395 52.023-9.597 15.127-4.67 29.672-11.39 43.436-19.213 11.128-6.324 21.877-13.577 31.315-22.223 13.03-11.937 24.406-25.774 34.345-40.386 9.659-14.199 17.72-29.572 24.244-45.457 6.274-15.274 10.912-31.283 14.142-47.477 2.848-14.277 4.258-28.881 4.546-43.437.36-18.217-.032-36.667-3.536-54.548-2.862-14.603-5.94-29.928-14.142-42.345-8.693-13.16-21.876-23.276-35.396-31.396-13.23-7.946-28.529-11.998-43.396-16.142-12.215-3.404-24.888-4.888-37.376-7.091l-17.172-3.03" style="fill:none;fill-rule:evenodd;stroke:#000;stroke-width:35;stroke-linecap:butt;stroke-linejoin:miter;stroke-miterlimit:4;stroke-dasharray:none;stroke-opacity:1"/><path d="M248.316 315.873s24.122-5.075 34.72-6.875 29.902-2.315 50.082-3.117c10.761-.428 21.53-.99 32.303-1.005 11.814-.016 23.623.557 35.428 1.005 7.34.278 14.702.296 22.008 1.046l29.106 2.985" style="fill:none;fill-rule:evenodd;stroke:#000;stroke-width:20.26376724;stroke-linecap:butt;stroke-linejoin:miter;stroke-miterlimit:4;stroke-dasharray:none;stroke-opacity:1"/><path d="M580.581 560.71s6.134-29.44 3.888-43.988c-.977-6.323-2.736-13.493-7.379-17.719-4.246-3.865-8.888-7.85-18.025-8.848s-26.303 8.06-26.303 8.06" style="fill:none;fill-rule:evenodd;stroke:#000;stroke-width:28.58847809;stroke-linecap:butt;stroke-linejoin:miter;stroke-miterlimit:4;stroke-dasharray:none;stroke-opacity:1"/><path d="M149.56 560.96s-6.376-30.106-3.671-44.866c1.233-6.73 3.589-13.785 8.82-18.537 0 0 10.034-5.78 15.434-6.284 5.4-.505 18.662 2.874 18.662 2.874" style="fill:none;fill-rule:evenodd;stroke:#000;stroke-width:28.05994987;stroke-linecap:butt;stroke-linejoin:miter;stroke-miterlimit:4;stroke-dasharray:none;stroke-opacity:1"/><path d="M441.443 349.75s12.082-15.944 7.5-28.506c-4.535-12.436-20.095-13.812-20.095-13.812" style="fill:none;fill-rule:evenodd;stroke:#000;stroke-width:20.16927338;stroke-linecap:butt;stroke-linejoin:miter;stroke-miterlimit:4;stroke-dasharray:none;stroke-opacity:1"/><rect width="36.365" height="18.183" x="126.269" y="468.494" ry="9.091" style="opacity:1;fill:none;fill-opacity:1;stroke:#000;stroke-width:20;stroke-linecap:round;stroke-linejoin:miter;stroke-miterlimit:4;stroke-dasharray:none;stroke-dashoffset:0;stroke-opacity:1"/><rect width="36.365" height="18.183" x="560.635" y="472.535" ry="9.091" style="opacity:1;fill:none;fill-opacity:1;stroke:#000;stroke-width:20;stroke-linecap:round;stroke-linejoin:miter;stroke-miterlimit:4;stroke-dasharray:none;stroke-dashoffset:0;stroke-opacity:1"/><ellipse cx="473.552" cy="625.19" rx="23.719" ry="23.214" style="fill:#fff;fill-rule:evenodd;stroke:#000;stroke-width:14.23218822;stroke-linecap:butt;stroke-linejoin:miter;stroke-miterlimit:4;stroke-dasharray:none;stroke-opacity:1;fill-opacity:1"/><ellipse cx="369.211" cy="627.088" rx="37.339" ry="36.834" style="fill:#fff;fill-opacity:1;fill-rule:evenodd;stroke:#000;stroke-width:8.45023632;stroke-linecap:butt;stroke-linejoin:miter;stroke-miterlimit:4;stroke-dasharray:none;stroke-opacity:1"/><ellipse cx="260.619" cy="625.068" rx="23.719" ry="23.214" style="fill:#fff;fill-rule:evenodd;stroke:#000;stroke-width:14.23218822;stroke-linecap:butt;stroke-linejoin:miter;stroke-miterlimit:4;stroke-dasharray:none;stroke-opacity:1;fill-opacity:1"/><path d="M287.061 349.75s-12.082-15.944-7.5-28.506c4.535-12.436 20.095-13.812 20.095-13.812" style="fill:none;fill-rule:evenodd;stroke:#000;stroke-width:20.16927338;stroke-linecap:butt;stroke-linejoin:miter;stroke-miterlimit:4;stroke-dasharray:none;stroke-opacity:1"/></svg>