<svg xmlns="http://www.w3.org/2000/svg" width="210mm" height="297mm" viewBox="0 0 744.094 1052.362"><ellipse cx="512.143" cy="506.648" rx="69.105" ry="72.676" style="fill:none;fill-rule:evenodd;stroke:#000;stroke-width:65;stroke-linecap:butt;stroke-linejoin:miter;stroke-miterlimit:4;stroke-dasharray:none;stroke-opacity:1"/><ellipse cx="233.571" cy="506.648" rx="69.105" ry="72.676" style="fill:none;fill-rule:evenodd;stroke:#000;stroke-width:65;stroke-linecap:butt;stroke-linejoin:miter;stroke-miterlimit:4;stroke-dasharray:none;stroke-opacity:1"/><g style="stroke:#000;stroke-opacity:1"><circle cx="371.429" cy="330.934" r="70" style="fill:none;fill-rule:evenodd;stroke:#000;stroke-width:10;stroke-linecap:butt;stroke-linejoin:miter;stroke-miterlimit:4;stroke-dasharray:none;stroke-opacity:1"/></g><ellipse cx="319.857" cy="330.934" rx="16.378" ry="17.092" style="fill:none;fill-rule:evenodd;stroke:#000;stroke-width:7.30948782;stroke-linecap:butt;stroke-linejoin:miter;stroke-miterlimit:4;stroke-dasharray:none;stroke-opacity:1"/><ellipse cx="421.571" cy="330.934" rx="16.378" ry="17.092" style="fill:none;fill-rule:evenodd;stroke:#000;stroke-width:7.30948782;stroke-linecap:butt;stroke-linejoin:miter;stroke-miterlimit:4;stroke-dasharray:none;stroke-opacity:1"/><ellipse cx="372.143" cy="380.362" rx="16.378" ry="17.092" style="fill:none;fill-rule:evenodd;stroke:#000;stroke-width:7.30948782;stroke-linecap:butt;stroke-linejoin:miter;stroke-miterlimit:4;stroke-dasharray:none;stroke-opacity:1"/><g style="stroke:#000;stroke-opacity:1" transform="translate(0 4)"><ellipse cx="372.143" cy="276.648" rx="16.378" ry="17.092" style="fill:none;fill-rule:evenodd;stroke:#000;stroke-width:7.30948782;stroke-linecap:butt;stroke-linejoin:miter;stroke-miterlimit:4;stroke-dasharray:none;stroke-opacity:1"/></g><g style="stroke:#000;stroke-opacity:1" transform="translate(0 350)"><circle cx="371.429" cy="330.934" r="70" style="fill:none;fill-rule:evenodd;stroke:#000;stroke-width:10;stroke-linecap:butt;stroke-linejoin:miter;stroke-miterlimit:4;stroke-dasharray:none;stroke-opacity:1"/></g><ellipse cx="319.857" cy="680.934" rx="16.378" ry="17.092" style="fill:none;fill-rule:evenodd;stroke:#000;stroke-width:7.30948782;stroke-linecap:butt;stroke-linejoin:miter;stroke-miterlimit:4;stroke-dasharray:none;stroke-opacity:1"/><ellipse cx="421.571" cy="680.934" rx="16.378" ry="17.092" style="fill:none;fill-rule:evenodd;stroke:#000;stroke-width:7.30948782;stroke-linecap:butt;stroke-linejoin:miter;stroke-miterlimit:4;stroke-dasharray:none;stroke-opacity:1"/><ellipse cx="372.143" cy="730.362" rx="16.378" ry="17.092" style="fill:none;fill-rule:evenodd;stroke:#000;stroke-width:7.30948782;stroke-linecap:butt;stroke-linejoin:miter;stroke-miterlimit:4;stroke-dasharray:none;stroke-opacity:1"/><g style="stroke:#000;stroke-opacity:1" transform="translate(0 354)"><ellipse cx="372.143" cy="276.648" rx="16.378" ry="17.092" style="fill:none;fill-rule:evenodd;stroke:#000;stroke-width:7.30948782;stroke-linecap:butt;stroke-linejoin:miter;stroke-miterlimit:4;stroke-dasharray:none;stroke-opacity:1"/></g><path d="M198.571 253.79s52.587-29.396 81.072-38.57c27.983-9.014 57.388-15.381 86.786-15.715 33.622-.382 67.557 5.658 99.642 15.714 28.148 8.822 79.643 38.572 79.643 38.572l38.572-8.572 54.285 54.286-11.428 40s31.191 55.835 39.286 86.429c7.399 27.966 9.036 57.524 7.857 86.428-1.36 33.323-6.007 67.136-17.143 98.572-9.468 26.725-24.364 51.644-41.429 74.285-16.821 22.319-37.202 42.118-59.143 59.429-18.221 14.376-38.256 26.774-59.428 36.286-21.573 9.69-44.672 16.054-67.857 20.714-18.159 3.65-36.765 5.402-55.286 5.571-18.275.167-36.658-1.25-54.643-4.5-18.528-3.347-36.851-8.425-54.357-15.357-19.703-7.802-38.756-17.59-56.429-29.286-23.694-15.679-46.582-33.28-65.714-54.285-19.388-21.287-36.318-45.373-48.571-71.429-11.288-24.002-17.826-50.258-22.143-76.428-4.307-26.103-5.93-52.936-3.572-79.286 2.394-26.752 9.291-53.116 17.858-78.572 7.17-21.309 27.857-61.428 27.857-61.428l-9.429-41.714 49.429-49.715z" style="fill:none;fill-rule:evenodd;stroke:#000;stroke-width:18;stroke-linecap:butt;stroke-linejoin:miter;stroke-miterlimit:4;stroke-dasharray:none;stroke-opacity:1"/></svg>